<?xml version="1.0" encoding="utf-8"?>
<!-- Generator: Adobe Illustrator 23.1.1, SVG Export Plug-In . SVG Version: 6.00 Build 0)  -->
<svg version="1.1" id="Layer_1" xmlns="http://www.w3.org/2000/svg" xmlns:xlink="http://www.w3.org/1999/xlink" x="0px" y="0px"
	 viewBox="0 0 330 330" style="enable-background:new 0 0 330 330;" xml:space="preserve">
<style type="text/css">
	.st0{fill:#FFFFFF;}
</style>
<g id="XMLID_23_">
	<path id="XMLID_24_" class="st0" d="M75,180v60c0,8.3,6.7,15,15,15h60c4,0,7.8-1.6,10.6-4.4l165-165c5.9-5.9,5.9-15.4,0-21.2
		l-60-60C262.8,1.6,259,0,255,0s-7.8,1.6-10.6,4.4l-165,165C76.6,172.2,75,176,75,180z M105,186.2l150-150L293.8,75l-150,150H105
		V186.2z"/>
	<path id="XMLID_27_" class="st0" d="M315,150c-8.3,0-15,6.7-15,15v135H30V30h135c8.3,0,15-6.7,15-15s-6.7-15-15-15H15
		C6.7,0,0,6.7,0,15v300c0,8.3,6.7,15,15,15h300c8.3,0,15-6.7,15-15V165C330,156.7,323.3,150,315,150z"/>
</g>
</svg>
